<?xml version="1.0" standalone="no"?>
<!DOCTYPE svg PUBLIC "-//W3C//DTD SVG 20010904//EN"
 "http://www.w3.org/TR/2001/REC-SVG-20010904/DTD/svg10.dtd">
<svg version="1.0" xmlns="http://www.w3.org/2000/svg"
 width="1122.000000pt" height="1122.000000pt" viewBox="0 0 1122.000000 1122.000000"
 preserveAspectRatio="xMidYMid meet">
<metadata>
Created by potrace 1.14, written by Peter Selinger 2001-2017
</metadata>
<g transform="translate(0.000000,1122.000000) scale(0.100000,-0.100000)"
fill="#000000" stroke="none">
<path d="M5586 9393 c-9 -25 -13 -49 -10 -54 3 -5 1 -9 -4 -9 -5 0 -9 -6 -9
-12 -1 -7 -20 -78 -43 -158 -23 -80 -43 -149 -44 -155 -1 -5 -4 -14 -8 -20 -7
-12 -97 -13 -116 -1 -6 4 -12 4 -12 -1 0 -10 -91 -10 -108 1 -6 4 -12 4 -12
-1 0 -4 -42 -8 -94 -8 -90 0 -124 -8 -99 -23 10 -6 106 -90 159 -137 12 -12
44 -39 69 -60 107 -91 117 -102 108 -122 -5 -10 -9 -25 -8 -33 1 -8 -2 -19 -6
-25 -5 -8 -67 -194 -74 -225 -1 -3 -7 -23 -13 -45 -6 -22 -12 -44 -13 -50 0
-5 -4 -14 -8 -20 -14 -18 -21 -64 -11 -70 8 -5 55 30 146 110 6 6 31 26 54 45
24 19 61 52 84 72 23 21 47 38 54 38 6 0 12 6 12 14 0 21 33 30 46 12 6 -9 14
-16 18 -16 4 0 13 -6 20 -12 22 -21 135 -117 210 -178 10 -8 24 -21 32 -28 8
-7 14 -11 14 -8 0 4 13 -8 29 -26 23 -26 32 -30 42 -21 7 7 9 19 4 30 -4 10
-9 23 -10 28 -2 6 -19 60 -38 120 -20 61 -41 130 -48 155 -7 25 -16 49 -21 55
-4 5 -8 19 -8 30 0 12 -3 25 -7 29 -20 19 -10 46 30 79 23 20 56 47 72 62 17
14 54 47 84 73 30 26 73 64 95 84 23 21 44 38 48 38 4 0 5 6 2 14 -4 10 -20
13 -55 12 -27 -1 -49 2 -49 7 0 4 -8 4 -17 -1 -22 -10 -63 -9 -80 1 -7 5 -13
5 -13 0 0 -10 -91 -10 -108 1 -6 4 -12 3 -12 -1 0 -10 -98 -8 -108 2 -3 3 -7
11 -8 18 -2 7 -9 35 -17 62 -8 28 -34 121 -58 207 -24 87 -49 160 -56 162 -7
3 -18 -14 -27 -41z"/>
<path d="M4577 8974 c-1 -1 -33 -5 -72 -8 -38 -4 -77 -9 -85 -11 -8 -3 -29 -7
-45 -9 -125 -18 -318 -95 -434 -174 -29 -21 -60 -41 -69 -47 -22 -15 -123
-116 -152 -153 -25 -32 -25 -32 -57 -16 -18 9 -33 23 -33 30 0 8 -4 14 -9 14
-5 0 -11 9 -14 21 -10 36 -29 16 -47 -47 -19 -71 -51 -144 -62 -144 -4 0 -8
-7 -8 -15 0 -18 -140 -165 -157 -165 -7 0 -13 -4 -13 -10 0 -5 -6 -10 -14 -10
-8 0 -21 -6 -28 -13 -11 -11 -38 -26 -58 -32 -3 -1 -21 -8 -40 -16 -19 -9 -57
-21 -85 -29 -27 -7 -56 -17 -62 -23 -9 -6 -13 -5 -13 4 -1 10 -4 9 -14 -4 -9
-11 -11 -31 -7 -60 7 -50 6 -303 -2 -332 -2 -11 -10 -40 -17 -65 -18 -68 -46
-116 -96 -167 -44 -44 -46 -49 -50 -112 -6 -120 -15 -215 -20 -223 -3 -4 -7
-31 -9 -58 -2 -27 -6 -54 -10 -60 -3 -5 -8 -26 -10 -46 -3 -20 -8 -41 -12 -48
-4 -6 -8 -13 -8 -16 -3 -22 -32 -90 -48 -114 -13 -18 -20 -45 -20 -70 0 -43
11 -206 19 -268 2 -21 2 -38 -1 -38 -10 0 -60 34 -68 47 -4 7 -13 18 -20 25
-30 32 -42 73 -41 143 1 70 6 92 46 183 18 42 18 43 0 70 -46 66 -55 132 -27
198 15 37 78 105 113 123 37 20 27 47 -15 42 -17 -2 -17 -1 7 54 23 53 30 132
18 190 -5 22 -10 47 -12 55 -5 24 -18 52 -49 109 -26 46 -30 65 -32 135 -1 44
-5 91 -9 103 -4 12 -9 31 -11 43 -2 12 -10 35 -17 52 -12 27 -16 29 -56 24
-45 -5 -161 -62 -169 -82 -3 -7 -11 -10 -18 -8 -34 14 -188 -175 -215 -264 -6
-20 -14 -44 -18 -52 -12 -32 -10 -180 4 -237 8 -32 16 -63 17 -70 2 -7 6 -16
10 -19 4 -4 7 -13 7 -21 0 -12 -15 -12 -72 0 -22 5 -17 -20 12 -51 16 -18 30
-36 30 -40 1 -4 14 -23 30 -42 17 -19 30 -40 30 -47 0 -7 4 -13 8 -13 5 0 19
-25 31 -55 49 -118 45 -199 -14 -261 -19 -20 -35 -37 -35 -38 0 -1 51 -53 113
-116 82 -85 122 -134 149 -186 34 -64 63 -97 147 -166 12 -10 26 -18 31 -18 6
0 10 -4 10 -10 0 -5 4 -10 9 -10 5 0 40 -19 77 -42 38 -23 75 -41 82 -41 6 0
12 -4 12 -9 0 -4 7 -8 16 -8 15 0 152 -132 213 -206 57 -68 122 -158 148 -202
15 -26 31 -48 35 -50 4 -2 8 -8 8 -13 0 -5 16 -32 35 -59 19 -27 35 -54 35
-60 0 -5 3 -10 8 -10 4 0 25 -28 47 -63 22 -34 43 -66 47 -72 5 -5 54 -73 111
-150 57 -77 128 -170 159 -207 l57 -66 -45 -45 c-24 -25 -57 -61 -73 -81 l-28
-35 -42 69 c-22 38 -41 74 -41 79 0 5 -6 16 -13 23 -7 7 -26 38 -42 69 -20 42
-33 57 -49 57 -12 0 -39 5 -61 11 -22 6 -44 11 -50 12 -5 0 -16 5 -22 11 -7 6
-13 8 -13 4 0 -19 -84 41 -110 79 -33 48 -80 162 -86 208 -2 16 -7 34 -11 40
-4 7 -8 19 -10 27 -1 8 -7 42 -12 75 -6 33 -12 71 -14 85 -5 48 -15 51 -62 19
-25 -17 -49 -38 -54 -47 -5 -9 -11 -15 -14 -12 -13 17 -67 102 -67 107 0 3
-28 32 -62 64 -72 67 -142 107 -248 142 -84 28 -146 63 -155 90 -4 9 -10 17
-15 17 -9 0 -29 32 -75 121 -11 22 -23 40 -26 41 -3 2 -17 -10 -31 -27 -28
-34 -62 -95 -52 -95 4 0 1 -6 -5 -14 -6 -8 -13 -28 -14 -45 -1 -17 -4 -31 -7
-31 -5 0 -10 -28 -13 -67 -1 -19 -16 -16 -51 11 -36 27 -90 56 -105 56 -10 0
-7 -182 5 -230 3 -14 7 -38 10 -55 3 -24 16 -85 29 -135 2 -5 6 -15 38 -100
45 -118 134 -225 217 -264 25 -11 47 -21 50 -21 3 -1 46 -11 95 -23 101 -24
132 -30 158 -31 14 -1 9 -8 -18 -32 -46 -41 -104 -167 -78 -170 5 -1 31 -3 58
-5 135 -11 162 -15 260 -40 84 -21 193 -84 253 -145 46 -47 102 -133 102 -158
0 -22 14 -34 45 -38 72 -9 106 -16 157 -33 74 -24 81 -29 69 -43 -5 -7 -28
-68 -51 -137 -23 -69 -47 -138 -55 -155 -7 -16 -20 -52 -30 -80 -9 -27 -21
-58 -26 -67 -9 -18 0 -24 26 -18 8 1 126 10 160 12 24 1 113 -14 145 -25 19
-6 37 -11 40 -12 3 0 14 -6 25 -12 11 -6 22 -11 25 -11 3 0 25 -5 50 -12 25
-7 52 -14 60 -15 8 -2 16 -4 18 -5 7 -7 123 -27 212 -37 71 -8 221 -9 285 -1
48 6 63 10 103 25 9 3 19 7 22 7 29 7 155 123 190 176 28 43 41 52 56 40 17
-15 90 -15 127 -1 15 6 27 9 27 7 0 -2 21 2 47 10 70 21 86 18 102 -16 32 -73
109 -113 177 -92 19 6 34 6 34 1 0 -5 -4 -9 -9 -9 -9 0 -69 -27 -266 -120 -33
-15 -98 -46 -145 -68 -47 -21 -121 -57 -165 -78 -44 -21 -82 -39 -85 -39 -3
-1 -32 -14 -65 -30 -33 -16 -62 -29 -65 -30 -16 -4 -140 -67 -144 -73 -2 -4
-7 -37 -10 -74 -4 -37 -9 -77 -11 -90 -3 -13 -7 -45 -11 -73 -3 -27 -7 -59 -9
-70 -2 -11 -4 -28 -4 -38 -1 -15 -12 -11 -63 25 -35 24 -64 46 -66 51 -2 4 -8
7 -13 7 -5 0 -28 12 -50 26 -117 73 -406 216 -463 229 -6 1 -18 5 -26 8 -34
15 -106 39 -125 43 -11 2 -60 15 -110 29 -49 14 -103 28 -120 30 -16 3 -48 7
-70 11 -120 21 -205 27 -365 28 -148 0 -364 -13 -377 -24 -4 -3 -11 -5 -68
-15 -27 -5 -52 -9 -55 -10 -3 0 -23 -5 -45 -10 -22 -4 -44 -10 -50 -11 -5 -2
-35 -10 -65 -19 -30 -9 -65 -19 -77 -22 -13 -3 -23 -10 -23 -15 0 -5 -4 -7 -9
-4 -9 6 -52 -9 -164 -58 -21 -9 -43 -16 -49 -16 -6 0 -19 -6 -27 -13 -9 -7
-45 -26 -81 -42 -36 -17 -67 -32 -70 -35 -3 -3 -25 -16 -50 -29 -25 -13 -78
-46 -119 -73 -41 -26 -75 -48 -77 -48 -18 0 -124 -110 -130 -135 -7 -29 -3
-29 -79 -11 -166 39 -318 -23 -389 -160 -24 -46 -29 -77 -42 -234 -3 -40 -7
-89 -19 -215 -2 -22 -4 -40 -5 -40 -1 0 -3 -28 -4 -62 l-3 -62 66 -44 c60 -39
151 -87 176 -91 6 -1 19 -5 30 -9 94 -29 246 -29 355 1 47 13 90 24 95 25 6 1
12 4 15 7 3 3 23 14 45 24 22 11 63 33 90 50 28 16 51 30 52 31 3 1 11 57 18
125 7 68 10 73 91 138 16 12 43 33 59 46 53 42 165 116 175 116 6 0 10 4 10 9
0 5 12 14 28 20 15 5 43 19 62 30 77 45 266 120 340 135 14 3 43 10 65 15 145
37 421 34 575 -6 37 -9 43 -11 70 -16 55 -12 180 -58 265 -98 56 -26 217 -119
225 -129 3 -4 10 -9 16 -11 16 -6 174 -131 221 -176 10 -9 6 -43 -18 -162 -33
-165 -34 -159 26 -192 101 -56 168 -89 181 -89 8 0 14 -4 14 -10 0 -5 6 -10
14 -10 12 0 49 -14 131 -50 18 -8 62 -23 75 -25 3 0 41 -13 85 -27 66 -22 119
-37 220 -62 6 -2 28 -7 50 -11 55 -12 55 -12 58 -14 1 -2 20 -5 42 -7 21 -3
44 -9 51 -15 7 -5 16 -9 20 -7 5 1 29 -2 54 -6 59 -12 64 -13 70 -15 3 -1 25
-4 50 -6 25 -2 56 -7 70 -11 14 -3 43 -8 65 -10 22 -3 69 -9 105 -14 36 -6 92
-12 125 -15 33 -3 80 -8 105 -11 194 -22 350 -22 495 1 17 2 61 7 99 10 38 3
72 8 75 9 3 2 37 7 74 11 37 3 78 8 90 11 24 5 71 12 127 20 19 2 42 7 50 9 8
2 29 7 45 9 31 6 100 20 145 30 35 8 71 16 95 20 11 2 47 11 80 20 33 9 71 19
84 22 57 12 327 106 397 139 42 19 83 35 90 35 8 0 14 4 14 9 0 5 10 13 22 17
13 4 49 23 80 43 54 33 58 38 53 66 -3 17 -8 43 -10 59 -2 15 -7 35 -9 45 -3
9 -8 32 -11 51 -3 19 -10 52 -16 72 -12 45 -4 59 57 108 25 19 52 42 62 51 9
8 42 33 72 54 30 22 57 43 58 47 2 5 10 8 17 8 8 0 20 6 27 13 61 55 361 184
472 201 21 4 42 9 47 12 9 5 18 7 154 24 93 12 328 4 375 -13 8 -2 42 -11 75
-18 77 -16 181 -52 273 -95 41 -19 78 -34 83 -34 5 0 9 -4 9 -8 0 -5 17 -16
38 -26 37 -16 93 -47 102 -56 3 -3 34 -25 70 -50 65 -45 91 -64 115 -87 8 -7
16 -13 19 -13 3 0 19 -14 36 -30 17 -17 34 -30 38 -30 4 0 7 -19 8 -42 3 -146
6 -152 115 -212 59 -32 199 -89 199 -81 0 2 15 -1 33 -6 37 -12 217 -20 232
-11 6 4 17 7 25 7 63 3 182 52 272 111 l66 44 -3 48 c-2 26 -6 77 -10 112 -4
36 -9 88 -11 115 -2 28 -6 77 -8 110 -3 33 -8 85 -10 116 -7 97 -75 201 -161
246 -74 39 -199 49 -284 24 -40 -12 -35 -15 -75 45 -17 26 -40 52 -51 58 -10
6 -25 16 -32 23 -54 49 -376 236 -387 225 -3 -3 -6 0 -6 6 0 7 -3 11 -7 10 -5
-1 -29 8 -55 20 -70 33 -198 81 -198 75 0 -3 -6 -1 -12 4 -7 5 -33 15 -58 22
-25 7 -56 17 -70 22 -14 5 -47 14 -75 20 -27 6 -58 13 -67 15 -51 12 -126 26
-163 29 -16 2 -57 7 -90 11 -74 9 -378 9 -460 0 -102 -11 -129 -14 -160 -21
-16 -4 -39 -8 -50 -10 -94 -14 -335 -84 -423 -122 -20 -9 -39 -17 -42 -18 -12
-4 -60 -25 -110 -49 -29 -14 -59 -26 -66 -26 -7 0 -14 -4 -16 -8 -1 -4 -43
-30 -93 -56 -76 -41 -265 -160 -300 -188 -17 -15 -129 -100 -149 -113 -22 -16
-29 -91 -35 -382 -1 -44 -4 -53 -19 -53 -10 0 -23 -5 -30 -12 -7 -7 -12 -9
-12 -6 0 4 -15 2 -32 -3 -18 -6 -44 -12 -58 -14 -25 -4 -45 -8 -90 -19 -29 -7
-70 -14 -120 -21 -19 -3 -44 -7 -55 -10 -11 -2 -42 -7 -70 -10 -27 -4 -61 -8
-75 -11 -14 -3 -45 -7 -70 -9 -25 -3 -65 -7 -90 -10 -52 -6 -152 -13 -295 -20
-55 -3 -121 -6 -147 -8 l-46 -3 14 26 c22 39 38 63 51 78 7 7 29 38 50 69 36
55 37 60 40 152 1 53 4 157 7 231 5 130 16 514 21 728 1 56 4 105 7 108 5 4
189 -87 246 -121 9 -6 44 -25 77 -43 107 -57 336 -191 345 -201 3 -3 25 -17
50 -31 25 -13 50 -28 55 -32 6 -5 66 -45 135 -90 69 -45 127 -85 130 -88 14
-16 62 -40 79 -40 11 0 32 11 47 25 15 14 23 25 19 25 -4 0 -2 7 5 15 11 14
15 91 7 145 -2 14 -13 45 -24 70 -18 41 -30 51 -144 115 -176 100 -222 124
-424 224 -163 80 -213 104 -340 161 -22 10 -71 32 -108 49 -37 17 -74 31 -82
31 -8 0 -15 5 -15 11 0 5 -4 8 -9 4 -5 -3 -12 -1 -16 4 -12 21 77 54 147 55
36 1 65 3 63 6 -2 3 40 6 93 7 135 2 153 7 181 48 22 33 57 46 75 28 3 -4 12
-8 19 -9 7 -1 55 -9 107 -18 53 -9 107 -16 120 -17 160 -3 287 -1 340 5 68 8
282 62 360 91 49 17 232 105 240 114 7 8 41 29 60 38 8 4 17 9 20 12 13 16 82
62 86 59 2 -3 6 -31 9 -64 10 -125 75 -272 169 -377 40 -46 49 -33 51 84 3
110 11 173 26 202 5 9 8 17 5 17 -3 0 4 26 15 58 11 31 20 59 21 62 0 3 4 15
9 28 5 13 12 34 15 47 3 14 10 25 15 25 5 0 8 3 7 8 -5 18 44 130 89 204 26
43 23 46 -61 72 -64 19 -136 59 -206 115 -25 19 -47 38 -50 41 -3 3 -16 14
-29 23 -24 16 -25 15 -71 -31 -54 -53 -170 -159 -214 -193 -16 -13 -45 -38
-65 -56 -20 -18 -39 -33 -43 -33 -4 0 -13 -6 -20 -13 -7 -7 -35 -28 -63 -47
-27 -19 -52 -37 -55 -40 -12 -13 -108 -70 -118 -70 -5 0 -12 -4 -14 -9 -5 -13
-166 -87 -228 -105 -30 -8 -73 -18 -95 -21 -22 -3 -60 -8 -85 -11 -64 -9 -250
-11 -279 -4 -22 5 -20 7 20 20 24 7 46 14 49 15 15 2 149 70 173 87 15 11 27
16 27 12 0 -3 7 0 16 7 17 14 31 23 85 53 44 24 354 231 369 246 3 3 50 39
105 80 55 41 135 109 177 150 42 41 83 80 90 85 22 17 72 37 103 41 17 2 48 6
70 9 22 3 67 12 100 20 33 9 71 18 84 21 71 15 291 122 299 145 2 5 9 9 16 9
10 0 69 55 137 129 12 14 44 66 70 117 26 50 61 116 77 145 55 99 124 234 128
249 2 8 9 38 17 65 16 60 15 149 -3 170 -17 21 -47 19 -55 -4 -10 -32 -88
-109 -145 -142 -51 -29 -80 -46 -213 -119 -26 -14 -57 -34 -68 -43 -10 -9 -21
-17 -24 -17 -7 0 -48 -43 -89 -93 -38 -46 -109 -181 -121 -230 -4 -15 -11 -30
-16 -33 -5 -3 -9 -12 -9 -21 0 -52 -73 -141 -140 -171 -54 -24 -72 -25 -66 -5
3 10 14 52 25 93 11 41 25 91 31 110 12 38 13 42 31 110 28 103 117 240 157
240 20 0 198 88 212 104 7 9 17 16 21 16 22 0 81 68 115 133 21 40 37 75 36
80 -1 4 3 7 8 7 6 0 10 5 10 12 0 6 17 48 39 92 61 128 69 149 82 201 12 52
20 213 10 230 -2 5 -6 19 -7 31 -1 12 -14 50 -28 85 -23 58 -29 117 -14 145 4
7 2 100 -3 174 -2 29 -40 145 -53 163 -8 10 -25 20 -38 22 -20 4 -27 -2 -42
-38 -11 -23 -20 -46 -22 -52 -13 -62 -38 -147 -51 -175 -19 -41 -73 -129 -94
-150 -25 -27 -55 -74 -79 -125 -28 -57 -32 -147 -16 -335 11 -116 12 -269 4
-315 -15 -84 -79 -160 -153 -182 -32 -10 -35 -9 -31 5 3 9 8 37 10 62 3 25 8
68 12 95 4 28 8 69 8 93 0 23 3 42 6 42 3 0 5 24 6 53 0 28 3 102 8 162 4 61
9 151 11 200 10 185 14 215 42 273 26 55 75 133 101 160 6 7 12 17 12 21 0 4
8 16 18 27 10 10 28 35 42 54 13 19 27 37 30 40 17 14 116 160 139 204 23 44
26 62 25 141 0 57 -7 108 -18 140 -22 66 -67 155 -78 155 -4 0 -8 6 -8 13 0 7
-10 19 -22 27 -82 56 -92 72 -122 195 -8 34 -63 136 -92 172 -51 63 -128 102
-168 87 -9 -4 -15 -49 -6 -49 2 0 4 -12 16 -85 11 -62 11 -64 14 -70 1 -3 3
-34 4 -70 2 -46 -3 -80 -18 -120 -29 -75 -26 -169 8 -297 8 -29 11 -53 8 -53
-3 0 -1 -5 6 -12 7 -7 12 -18 12 -25 0 -12 20 -61 52 -129 11 -24 14 -127 5
-164 -22 -93 -45 -130 -79 -130 -12 0 -18 8 -19 23 -2 25 -5 49 -14 92 -13 67
-24 132 -29 165 -3 19 -8 46 -11 60 -8 43 -18 104 -19 123 0 9 -3 17 -6 17 -3
0 -6 12 -6 28 -2 30 -12 117 -14 117 -3 0 -9 39 -15 85 -8 68 -26 133 -42 151
-7 8 -13 23 -13 32 0 9 -4 17 -9 17 -5 0 -13 9 -16 21 -7 20 -215 236 -215
223 0 -4 -10 2 -22 13 -29 26 -163 113 -175 113 -5 0 -15 6 -21 13 -7 6 -16
12 -20 13 -4 0 -28 10 -54 22 -90 40 -147 57 -238 68 -24 3 -48 8 -52 10 -4 3
-8 1 -8 -4 0 -12 -210 -7 -270 7 -71 15 -139 40 -214 77 -38 19 -70 34 -72 34
-12 0 1 -56 29 -125 67 -165 179 -300 385 -463 101 -81 136 -101 243 -142 30
-11 64 -25 77 -30 29 -13 71 -30 102 -43 14 -5 33 -13 42 -18 10 -5 25 -9 33
-9 8 0 15 -4 15 -10 0 -5 6 -10 14 -10 20 0 162 -76 218 -117 41 -30 68 -56
119 -120 19 -23 83 -172 98 -228 22 -79 55 -255 47 -255 -8 0 -118 60 -146 80
-30 21 -130 211 -134 255 -2 12 -44 148 -59 188 -13 35 -75 97 -119 118 -94
46 -137 59 -242 75 -63 9 -74 12 -98 25 -13 7 -24 11 -26 9 -6 -5 -72 34 -72
42 0 5 -5 8 -11 8 -6 0 -16 6 -23 13 -7 6 -32 28 -56 47 -24 19 -49 41 -56 48
-20 19 -74 27 -75 11 0 -8 -2 -22 -4 -33 -6 -32 35 -121 89 -192 29 -38 77
-118 108 -179 143 -283 180 -352 208 -382 38 -40 128 -101 195 -132 88 -41
205 -89 205 -85 0 3 10 -1 23 -8 12 -7 24 -12 27 -13 17 -1 156 -61 162 -70 4
-5 8 -6 8 -2 0 24 50 -45 60 -83 18 -67 36 -189 36 -237 -1 -24 3 -43 7 -43 4
0 4 -8 0 -17 -8 -16 -9 -36 -3 -55 5 -18 5 -198 0 -198 -9 0 -6 -43 3 -57 4
-6 3 -14 -1 -17 -5 -3 -7 -18 -5 -33 l4 -28 -14 25 c-17 28 -38 120 -51 215
-2 17 -7 44 -11 60 -3 17 -8 44 -10 61 -2 17 -9 50 -16 75 -27 89 -191 213
-359 270 -79 26 -113 50 -210 149 -88 90 -139 130 -167 130 -54 0 -74 -58 -47
-138 17 -49 92 -172 106 -172 4 0 8 -4 8 -10 0 -5 16 -27 36 -47 43 -45 112
-149 143 -216 12 -27 26 -54 32 -60 5 -7 19 -23 30 -37 11 -14 84 -90 162
-170 196 -202 242 -258 266 -331 20 -62 31 -185 19 -211 -5 -10 -4 -19 2 -23
6 -4 7 -12 3 -18 -4 -7 -9 -21 -10 -32 -1 -11 -8 -46 -14 -77 -6 -32 -11 -60
-9 -64 1 -4 -2 -10 -7 -13 -4 -3 -17 -32 -28 -65 -10 -32 -24 -64 -30 -70 -6
-6 -14 -19 -18 -30 -6 -15 -10 -16 -22 -6 -8 7 -15 22 -15 35 0 12 -3 25 -7
28 -3 4 -7 19 -9 35 -4 53 -15 298 -18 392 -2 52 -7 109 -11 125 -19 75 -105
214 -155 251 -8 7 -28 24 -45 38 -16 14 -39 29 -50 32 -27 9 -115 66 -145 95
-22 22 -63 76 -66 89 0 3 -6 18 -12 33 -7 16 -12 34 -12 42 0 23 -60 128 -90
157 -30 28 -90 52 -76 29 4 -6 2 -11 -4 -11 -5 0 -10 -12 -10 -27 1 -16 0 -48
-1 -73 -4 -94 23 -205 78 -315 36 -73 44 -100 58 -207 3 -26 7 -53 10 -60 2
-7 7 -30 10 -51 3 -21 10 -47 15 -58 6 -10 9 -19 6 -19 -7 0 30 -107 52 -150
18 -37 46 -66 163 -172 100 -91 140 -173 162 -332 14 -101 -96 -272 -258 -401
-27 -22 -52 -43 -55 -46 -7 -9 -239 -159 -245 -159 -10 0 -4 24 10 40 8 9 16
25 18 36 2 10 8 28 14 39 18 34 45 125 57 200 1 6 4 15 8 20 7 12 3 278 -5
322 -19 101 -71 225 -114 268 -47 47 -129 28 -253 -57 -25 -18 -59 -54 -76
-81 -44 -74 -152 -174 -305 -280 -39 -28 -11 -40 93 -40 51 0 104 3 118 6 47
9 131 45 163 69 52 40 54 40 56 5 6 -93 6 -278 -1 -322 -5 -27 -10 -64 -13
-82 -9 -66 -57 -218 -74 -233 -3 -3 -14 -22 -23 -42 -10 -21 -22 -38 -27 -38
-5 0 -14 35 -20 78 -6 42 -18 98 -26 125 -8 26 -12 47 -9 47 2 0 -2 13 -11 30
-8 16 -16 33 -16 37 -7 49 -100 243 -116 243 -25 0 -145 -98 -203 -166 -44
-51 -80 -102 -80 -113 0 -6 -3 -11 -8 -11 -4 0 -13 -15 -21 -33 -7 -17 -20
-46 -27 -62 -39 -84 -49 -148 -28 -169 15 -16 18 -15 45 16 15 18 28 36 29 39
0 10 139 99 154 99 8 0 17 -14 21 -32 4 -18 10 -37 13 -43 8 -13 11 -30 28
-165 3 -25 7 -57 10 -72 3 -23 -2 -29 -44 -49 -26 -13 -49 -24 -52 -25 -3 0
-54 -24 -114 -52 -59 -29 -112 -52 -117 -52 -5 0 -9 -6 -9 -12 0 -10 -2 -10
-9 0 -8 13 -7 168 3 472 3 91 8 261 11 379 3 118 8 218 11 223 3 4 26 6 52 3
26 -3 83 -8 127 -11 44 -3 83 -7 88 -7 8 -2 24 24 48 78 8 17 18 33 24 37 5 4
7 8 3 8 -4 0 4 21 17 48 13 26 43 90 68 142 24 52 70 148 100 212 66 137 71
158 50 203 -14 29 -56 61 -75 57 -3 -1 -5 13 -4 31 4 40 -28 101 -61 116 -18
8 -24 17 -20 31 5 21 -9 37 -33 38 -115 6 -285 0 -337 -12 -21 -4 -22 -2 -20
59 1 58 4 64 22 63 43 -2 104 23 138 59 20 20 34 40 31 45 -3 4 -20 8 -39 8
-19 0 -46 5 -62 12 -15 6 -31 12 -35 12 -21 3 -13 12 13 14 39 3 74 25 121 75
39 42 42 73 4 61 -32 -10 -59 -11 -77 -2 -9 4 -32 10 -50 13 -19 3 -56 9 -83
14 -27 4 -63 7 -80 6 -47 -4 -51 4 -17 36 17 15 31 33 31 38 0 6 4 11 8 11 12
0 44 59 38 69 -4 5 -2 11 4 13 5 1 11 26 13 53 l3 50 60 1 c49 2 63 -2 84 -21
41 -39 70 -45 111 -24 20 10 39 24 42 32 4 10 27 13 93 13 81 -1 89 1 116 26
35 33 37 76 4 114 -22 26 -28 28 -108 29 -83 1 -86 2 -112 32 -14 17 -38 33
-52 36 -36 7 -88 -16 -101 -45 -10 -23 -15 -24 -94 -22 -46 1 -87 2 -91 3 -14
2 -8 31 6 31 15 0 19 80 5 118 -5 14 -5 22 2 22 6 0 8 24 5 60 -2 33 0 63 5
66 5 3 6 10 3 16 -4 5 -8 38 -9 72 -2 33 -8 73 -14 87 -5 15 -8 35 -7 45 2 11
-1 24 -6 30 -10 14 -13 89 -5 124 4 14 14 50 22 80 19 68 14 164 -11 191 -17
19 -18 19 -48 1 -32 -19 -80 -19 -102 -1 -7 5 -32 11 -56 13 -36 3 -52 -3
-103 -35 -65 -43 -64 -43 -85 -29 -12 8 -13 13 -3 29 10 16 9 20 -3 25 -20 8
-51 -9 -64 -33 -5 -11 -7 -40 -4 -65 4 -25 3 -47 -2 -47 -5 -1 -18 -3 -29 -4
-45 -5 -96 -28 -110 -49 -20 -30 -25 -82 -10 -102 11 -16 13 -15 26 3 8 11 24
25 36 32 19 10 26 8 43 -9 11 -11 20 -24 20 -29 0 -5 16 -16 36 -23 38 -14 37
-7 21 -113 -1 -5 -5 -12 -8 -15 -12 -9 -19 -89 -8 -96 6 -3 7 -13 3 -23 -11
-25 -12 -81 -2 -81 5 0 6 -10 2 -22 -3 -12 -8 -40 -9 -62 -1 -23 -8 -62 -15
-88 -14 -54 -8 -81 15 -72 11 5 15 -1 15 -20 0 -14 -6 -26 -12 -27 -7 -1 -48
-2 -92 -3 -63 -2 -79 1 -84 13 -9 23 -25 37 -52 47 -39 12 -49 13 -56 3 -3 -5
-9 -7 -14 -4 -5 3 -20 -9 -33 -27 -25 -31 -28 -32 -106 -33 -44 -1 -91 -7
-104 -14 -33 -18 -46 -59 -31 -97 20 -49 35 -56 134 -57 83 -2 93 -5 109 -25
11 -15 31 -25 58 -29 36 -5 45 -2 70 23 25 25 36 29 95 31 64 2 68 1 64 -20
-4 -26 10 -94 27 -127 16 -33 26 -46 65 -83 17 -18 32 -35 32 -38 0 -4 -26 -6
-57 -5 -33 1 -99 -7 -152 -20 -65 -16 -100 -20 -112 -13 -27 14 -39 11 -39
-11 0 -43 103 -126 153 -122 9 0 17 -2 17 -6 0 -10 -75 -32 -109 -32 -44 0
-45 -15 -4 -54 36 -35 81 -54 135 -58 25 -2 26 -5 26 -64 0 -59 -2 -62 -22
-58 -47 11 -221 17 -336 12 -24 -1 -38 -17 -33 -38 4 -14 -2 -23 -19 -31 -33
-14 -60 -62 -60 -105 0 -27 -6 -37 -26 -46 -37 -18 -71 -73 -67 -106 3 -27 18
-61 139 -317 84 -178 90 -189 101 -197 6 -4 7 -8 3 -8 -4 0 6 -26 22 -59 17
-32 30 -63 30 -69 0 -15 38 -35 50 -27 10 6 78 13 188 19 33 2 55 -1 58 -8 2
-6 6 -97 8 -202 2 -105 6 -197 10 -203 4 -6 0 -11 -9 -11 -10 0 -33 -7 -53
-16 -21 -9 -46 -20 -57 -24 -56 -23 -223 -105 -247 -122 -34 -24 -35 -19 -4
36 22 40 27 56 42 131 20 96 -14 269 -73 375 -23 42 -31 94 -33 213 0 24 -13
21 -49 -12 -17 -16 -52 -34 -78 -41 -76 -19 -87 -22 -103 -24 -8 -2 -35 -9
-60 -16 -25 -8 -52 -15 -60 -16 -23 -2 -160 -75 -160 -85 0 -5 -6 -9 -14 -9
-7 0 -19 -7 -26 -16 -8 -8 -22 -20 -33 -25 -17 -10 -18 -8 -12 23 9 46 27 92
39 100 7 4 -2 20 -22 40 -38 36 -79 113 -77 143 2 30 20 66 49 100 43 50 150
155 159 155 22 0 1 34 -43 67 -27 21 -48 45 -48 53 3 25 -13 93 -28 123 -24
45 -86 109 -121 123 -19 8 -32 21 -31 31 1 57 -40 168 -67 185 -7 4 -28 22
-46 39 -35 33 -86 59 -124 63 -11 1 -26 5 -32 9 -6 4 -14 3 -18 -3 -4 -6 -11
-8 -16 -4 -11 7 -81 -43 -107 -77 -18 -23 -41 -63 -104 -178 -28 -52 -54 -118
-66 -170 -11 -48 -7 -210 6 -223 21 -21 13 -34 -30 -53 -67 -29 -74 -47 -25
-70 63 -31 83 -44 144 -102 87 -82 139 -185 148 -293 5 -69 16 -89 63 -116 55
-32 46 -24 145 -141 42 -51 72 -94 65 -94 -45 -5 -107 5 -156 23 -46 17 -74
39 -152 118 -52 53 -111 116 -129 139 -19 24 -40 49 -46 55 -28 29 -235 305
-235 314 0 6 -4 12 -8 14 -12 4 -72 95 -72 107 0 6 -4 11 -8 11 -8 0 -37 49
-77 130 -19 39 -53 150 -73 239 -3 14 -6 67 -6 116 0 69 5 100 19 130 20 42
81 105 102 105 6 0 13 4 15 8 2 4 26 15 53 24 56 18 52 2 39 159 -5 68 -3 97
10 135 19 56 56 114 73 114 6 0 13 4 15 9 2 7 173 104 188 107 3 0 18 6 33 12
47 20 86 24 179 21 10 0 20 -4 23 -10 4 -5 19 -9 36 -9 32 0 32 -4 9 129 -12
66 -13 92 -2 89 8 -3 105 33 112 42 3 3 21 13 40 22 75 36 189 146 218 212 60
134 39 281 -52 367 -28 27 -41 32 -87 34 -30 0 -58 -1 -63 -3 -4 -3 -31 -6
-60 -8 -28 -2 -62 -6 -76 -9 -14 -3 -36 -7 -50 -9 -71 -11 -200 -68 -265 -118
-51 -39 -114 -123 -135 -179 -13 -36 -17 -39 -40 -33 -60 17 -176 6 -191 -18
-4 -5 4 -29 18 -53 28 -50 38 -154 22 -219 -5 -22 -11 -48 -13 -56 -6 -21 -88
-213 -97 -225 -74 -97 -124 -132 -204 -141 -43 -5 -65 -14 -81 -31 -25 -27
-21 -44 30 -141 16 -31 29 -75 31 -104 2 -27 6 -52 8 -55 8 -7 -24 -96 -45
-122 -10 -13 -18 -20 -18 -16 0 5 -9 0 -19 -9 -19 -17 -20 -17 -27 21 -9 46
-9 335 0 378 3 17 9 46 12 65 9 56 12 73 23 108 5 17 8 32 6 32 -4 0 41 130
49 137 3 4 6 12 6 19 0 26 119 255 147 282 7 7 13 17 13 22 0 14 141 150 156
150 8 0 14 5 14 11 0 5 4 8 9 5 5 -4 11 -2 13 4 2 6 12 12 23 14 46 9 75 19
76 25 0 3 2 23 5 43 5 48 37 116 71 151 40 39 97 87 105 87 4 0 31 11 60 24
99 45 210 63 433 71 113 3 154 7 175 15 3 1 9 2 13 1 12 -2 157 71 157 79 0
14 54 31 114 36 33 3 64 11 68 17 4 7 8 8 8 4 0 -16 65 28 115 78 49 49 135
165 135 182 0 5 5 14 12 21 6 6 13 20 15 31 2 15 -11 22 -77 41 -44 13 -80 24
-80 26 0 7 64 121 76 135 8 8 14 20 14 26 0 6 4 13 8 15 4 2 21 20 37 41 44
59 47 58 -218 61 -81 1 -149 1 -150 0z m968 -2084 c3 -5 1 -10 -4 -10 -6 0
-11 5 -11 10 0 6 2 10 4 10 3 0 8 -4 11 -10z m145 0 c0 -5 -5 -10 -11 -10 -5
0 -7 5 -4 10 3 6 8 10 11 10 2 0 4 -4 4 -10z m-855 -2187 c-11 -34 -13 -112
-4 -138 6 -16 -9 -18 -59 -6 -80 20 -98 30 -110 65 -15 40 -15 49 -2 41 6 -4
19 -3 28 1 9 4 24 8 32 10 9 2 40 17 70 33 30 17 56 30 56 30 1 1 -4 -16 -11
-36z m542 -275 c1 -69 -3 -84 -20 -70 -7 5 -27 13 -44 17 -35 7 -42 19 -20 32
7 4 26 25 41 46 16 20 31 37 35 37 4 0 8 -28 8 -62z m-592 -94 c61 -12 75 -17
75 -25 0 -6 -4 -8 -9 -4 -5 3 -12 1 -15 -3 -6 -10 -82 -15 -107 -7 -20 7 -31
29 -23 49 5 12 11 13 32 5 15 -6 36 -13 47 -15z m352 -111 c5 -14 -53 -9 -72
7 -8 7 -15 16 -15 20 0 11 83 -15 87 -27z m28 -3 c3 -5 1 -10 -4 -10 -6 0 -11
5 -11 10 0 6 2 10 4 10 3 0 8 -4 11 -10z m231 -438 c1 -59 5 -192 8 -297 3
-104 8 -280 12 -390 9 -321 10 -329 25 -355 8 -14 17 -27 20 -30 11 -10 109
-159 109 -167 0 -4 -22 -8 -50 -8 -27 0 -50 2 -50 5 0 3 -37 6 -83 7 -45 1
-118 4 -162 7 -77 6 -101 8 -225 22 -30 3 -68 7 -85 9 -16 2 -30 4 -30 5 0 1
-9 3 -20 4 -11 2 -45 7 -75 11 -30 4 -62 9 -70 10 -8 1 -24 4 -35 8 -11 3 -38
8 -60 12 -22 3 -47 7 -55 10 -8 2 -26 6 -40 9 -14 3 -43 10 -65 16 -22 6 -50
12 -63 14 -12 2 -25 6 -28 9 -3 2 -7 65 -9 138 -7 230 -11 280 -22 287 -19 12
-65 47 -77 58 -6 6 -23 18 -39 28 -32 22 -26 34 31 63 89 46 177 97 183 105 3
5 9 9 13 9 7 -2 69 29 76 38 3 3 25 16 50 29 94 49 246 136 263 150 9 8 17 11
17 7 0 -4 8 -2 18 6 17 14 36 25 107 64 22 12 57 31 78 43 51 30 104 60 152
85 22 12 42 24 45 28 3 3 21 13 40 23 19 9 46 24 60 31 13 8 27 12 29 9 3 -3
6 -53 7 -112z"/>
</g>
</svg>
